<svg width="46" height="46" viewBox="0 0 46 46" fill="none" xmlns="http://www.w3.org/2000/svg">
<circle cx="23" cy="23" r="23" fill="#525252"/>
<path d="M23.456 9.512C25.016 9.512 26.372 9.74 27.524 10.196C28.676 10.628 29.804 11.3 30.908 12.212L28.28 15.272C26.84 14.096 25.328 13.508 23.744 13.508C21.968 13.508 20.552 14.24 19.496 15.704C18.464 17.144 17.948 19.412 17.948 22.508C17.948 25.532 18.464 27.776 19.496 29.24C20.552 30.68 21.98 31.4 23.78 31.4C24.716 31.4 25.568 31.232 26.336 30.896C27.104 30.536 27.908 30.032 28.748 29.384L31.196 32.444C30.308 33.356 29.204 34.112 27.884 34.712C26.588 35.288 25.148 35.576 23.564 35.576C21.332 35.576 19.376 35.072 17.696 34.064C16.016 33.056 14.708 31.58 13.772 29.636C12.836 27.668 12.368 25.292 12.368 22.508C12.368 19.796 12.848 17.468 13.808 15.524C14.768 13.556 16.088 12.068 17.768 11.06C19.448 10.028 21.344 9.512 23.456 9.512Z" fill="#25E2F0"/>
</svg>

