<svg width="47" height="47" viewBox="0 0 47 47" fill="none" xmlns="http://www.w3.org/2000/svg">
<circle cx="22" cy="22" r="22" fill="black"/>
<path d="M22.9777 9.46852C24.5377 9.46852 25.8937 9.69652 27.0457 10.1525C28.1977 10.5845 29.3257 11.2565 30.4297 12.1685L27.8017 15.2285C26.3617 14.0525 24.8497 13.4645 23.2657 13.4645C21.4897 13.4645 20.0737 14.1965 19.0177 15.6605C17.9857 17.1005 17.4697 19.3685 17.4697 22.4645C17.4697 25.4885 17.9857 27.7325 19.0177 29.1965C20.0737 30.6365 21.5017 31.3565 23.3017 31.3565C24.2377 31.3565 25.0897 31.1885 25.8577 30.8525C26.6257 30.4925 27.4297 29.9885 28.2697 29.3405L30.7177 32.4005C29.8297 33.3125 28.7257 34.0685 27.4057 34.6685C26.1097 35.2445 24.6697 35.5325 23.0857 35.5325C20.8537 35.5325 18.8977 35.0285 17.2177 34.0205C15.5377 33.0125 14.2297 31.5365 13.2937 29.5925C12.3577 27.6245 11.8897 25.2485 11.8897 22.4645C11.8897 19.7525 12.3697 17.4245 13.3297 15.4805C14.2897 13.5125 15.6097 12.0245 17.2897 11.0165C18.9697 9.98452 20.8657 9.46852 22.9777 9.46852Z" fill="white"/>
<circle cx="43" cy="43" r="4" fill="#25E2F0"/>
</svg>
